<svg height="512" viewBox="0 0 512 512" width="512" xmlns="http://www.w3.org/2000/svg"><g id="Flat"><path d="m14.667 336.333v53.334l-6.667 13.333 17.208-5.736a33.333 33.333 0 0 0 22.792-31.623v-62.641a33.333 33.333 0 0 0 -33.333 33.333z" fill="#6e3c26"/><path d="m105.39 299.927c-20.032 4.22-39.952 6.659-39.952 6.659-13.93 2.839-29.076-8.9-31.915-22.832a25.732 25.732 0 0 1 20.085-30.365l6.456-.972 12.036-12.417 6.658 6.659h15.973a4 4 0 0 1 4 4v15.975h53.269v33.293z" fill="#feb784"/><path d="m83.005 290.922-4.35 6.579a9.035 9.035 0 0 1 -16.236-7.421l.6-2.124-29.592-14.015c-3.068 11.932-2.606 31.786 15.962 42.239 26.137 14.715 53.99-18.94 53.99-18.94z" fill="#6e3c26"/><path d="m272 240-32 72-23.53-11.76-8.47-4.24-18.44 18.44a33.3 33.3 0 0 1 -43.51 3.1l-18.05-13.54v-96l8-56v-72l-15.54-31.09a4.309 4.309 0 0 1 5.78-5.79l9.76 4.88v-16a8 8 0 0 1 8-8h16a8 8 0 0 1 8 8v184l24 24z" fill="#feb784"/><path d="m472 488h-46.111a9.888 9.888 0 0 1 -9.889-9.889 9.888 9.888 0 0 1 5.466-8.844l10.534-5.267-37.65-42.35-90.35-101.65-56 56-48 24-32 40-32 16-48 32h-38.7a9.3 9.3 0 0 1 -9.3-9.3 9.3 9.3 0 0 1 6.358-8.821l17.642-5.879 48-41.45 128-110.55 32-72h.5a89.8 89.8 0 0 1 80.32 49.64l7.18 14.36 40 64 24 24 28.8 38.4a96 96 0 0 1 19.2 57.6z" fill="#feb784"/><path d="m424 392-29.65 29.65-90.35-101.65-56 56-48 24-32 40-32 16-24-32v-1.45l128-110.55 32-72h.5a89.8 89.8 0 0 1 80.32 49.64l7.18 14.36 40 64z" fill="#b53f92"/><rect fill="#a33484" height="16" rx="8" width="29.003" x="264" y="320"/><rect fill="#a33484" height="32" rx="8" width="16" x="296" y="288"/><path d="m128 304v32l8 56v72l-17.642 5.881a9.3 9.3 0 0 0 2.942 18.119h46.7v-184z" fill="#feb784"/><path d="m216.47 300.24-8.47-4.24-18.44 18.44a33.3 33.3 0 0 1 -43.51 3.1l-18.05-13.54s32 0 32-24-32-24-32-24v-8c16 0 32 0 56-16l8 8h24v56z" fill="#c378cb"/></g></svg>